<?xml version="1.0" standalone="no"?>
<!DOCTYPE svg PUBLIC "-//W3C//DTD SVG 20010904//EN"
 "http://www.w3.org/TR/2001/REC-SVG-20010904/DTD/svg10.dtd">
<svg version="1.0" xmlns="http://www.w3.org/2000/svg"
 width="200.000000pt" height="200.000000pt" viewBox="0 0 200.000000 200.000000"
 preserveAspectRatio="xMidYMid meet">
<metadata>
Created by potrace 1.10, written by Peter Selinger 2001-2011
</metadata>
<g transform="translate(0.000000,200.000000) scale(0.100000,-0.100000)"
fill="#000000" stroke="none">
<path d="M809 1974 c-391 -70 -718 -410 -780 -808 -18 -113 -6 -314 25 -419
82 -277 269 -496 530 -618 71 -33 211 -79 241 -79 8 0 66 206 65 233 0 4 -8 7
-18 7 -36 0 -137 60 -188 110 -114 113 -159 272 -119 423 21 82 47 127 110
196 126 135 313 175 491 105 98 -39 199 -140 238 -239 67 -170 35 -343 -87
-473 -57 -59 -115 -97 -180 -117 -26 -8 -41 -18 -38 -26 1 -8 15 -60 29 -116
15 -57 32 -103 38 -103 32 0 193 54 257 86 106 54 179 107 262 189 86 87 142
165 196 278 67 140 82 217 83 407 1 143 -2 176 -22 250 -137 501 -622 807
-1133 714z m315 -30 c417 -66 726 -368 797 -778 17 -101 6 -312 -21 -406 -24
-84 -84 -208 -140 -290 -49 -70 -168 -186 -245 -238 -112 -75 -303 -148 -326
-125 -14 14 -41 122 -35 138 2 7 32 28 66 46 130 69 227 207 251 355 41 254
-149 507 -410 546 -254 38 -502 -148 -541 -406 -31 -199 74 -404 253 -496 38
-20 67 -42 67 -50 0 -26 -29 -123 -39 -133 -15 -15 -120 16 -226 68 -450 221
-646 773 -435 1228 86 186 253 360 439 457 81 42 302 98 395 99 27 1 94 -6
150 -15z"/>
<path d="M895 1794 c-182 -30 -366 -128 -482 -259 -145 -162 -221 -396 -195
-601 14 -108 36 -180 65 -211 41 -45 60 -25 76 79 14 82 42 165 80 231 72 126
211 240 351 288 89 30 258 37 354 15 261 -61 452 -278 490 -557 4 -28 15 -54
27 -65 20 -18 21 -18 45 9 39 46 57 120 62 265 5 161 -10 235 -73 367 -53 109
-113 186 -202 260 -75 63 -216 135 -308 160 -61 16 -236 27 -290 19z m290 -59
c148 -40 302 -142 394 -261 158 -205 199 -450 119 -701 l-22 -68 -7 71 c-16
167 -75 291 -199 414 -138 138 -285 200 -475 200 -352 0 -641 -263 -674 -614
l-7 -71 -21 65 c-145 433 107 874 557 975 80 18 248 13 335 -10z"/>
</g>
</svg>
