<?xml version="1.0" encoding="UTF-8"?>
<svg id="Layer_2" data-name="Layer 2" xmlns="http://www.w3.org/2000/svg" viewBox="0 0 596.96 138.46">
  <defs>
    <style>
      .cls-1 {
        fill: #231f20;
      }
    </style>
  </defs>
  <g id="Layer_1-2" data-name="Layer 1">
    <g>
      <polygon class="cls-1" points="247.62 67.63 248.19 90.64 208 15.59 188.2 15.59 188.2 124.41 205.91 124.41 205.91 72.37 205.36 49.36 245.53 124.41 265.35 124.41 265.35 15.59 247.62 15.59 247.62 67.63"/>
      <polygon class="cls-1" points="279.58 124.41 344.31 124.41 344.31 108.08 298.28 108.08 298.28 76.98 337.34 76.98 337.34 60.8 298.28 60.8 298.28 31.92 344.31 31.92 344.31 15.59 279.58 15.59 279.58 124.41"/>
      <path class="cls-1" d="M411.14,68.33c7.11-3.63,12.14-9.9,12.14-20.64v-2.8c0-23.85-17.01-29.3-34.32-29.3h-33.33V124.41h34.74c17.86,0,35.7-5.87,35.7-30.56v-2.79c0-12.41-6.42-19.1-14.92-22.73Zm-36.83-36.41h14.65c7.83,0,15.35,2.93,15.35,13.38v1.81c0,10.47-7.52,13.4-15.35,13.4h-14.65V31.92Zm32.8,61.38c0,11.15-7.96,14.78-16.06,14.78h-16.74v-31.24h16.74c8.1,0,16.06,3.63,16.06,14.92v1.54Z"/>
      <path class="cls-1" d="M472.94,15.59h-34.03V124.41h18.68v-40.61h15.91l15.62,40.61h20.22l-17.71-43.52c9.9-3.91,17.71-12.43,17.71-29.86v-2.79c0-27.63-19.38-32.65-36.41-32.65Zm17.45,34.89c0,14.37-9.5,17.01-16.74,17.01h-16.06V31.92h16.06c7.24,0,16.74,2.64,16.74,17.01v1.54Z"/>
      <path class="cls-1" d="M568.38,15.04h-25.81l-28.6,109.38h20.22l6.01-24.84h30.69l6,24.84h20.08l-28.58-109.38Zm-24.27,68.22l11.44-46.88,11.29,46.88h-22.73Z"/>
      <path class="cls-1" d="M69.7,0C31.27,0,0,31.28,0,69.72c0,34.5,25.2,63.24,58.18,68.74l.11-.42,4.19-15.83,.08-.32c-14.04-3.25-24.53-15.83-24.53-30.85,0-17.45,14.2-31.65,31.67-31.65s31.65,14.2,31.65,31.65c0,15-10.49,27.6-24.51,30.85l.08,.32,4.18,15.83,.11,.42c32.98-5.49,58.19-34.24,58.19-68.74C139.41,31.28,108.14,0,69.7,0Zm48.35,91.38c.02-.11,.02-.22,.02-.34,0-26.67-21.69-48.36-48.36-48.36s-48.38,21.69-48.38,48.36v.3c-2.96-6.61-4.61-13.93-4.61-21.63,0-29.23,23.77-53.01,52.99-53.01s52.99,23.77,52.99,53.01c0,7.7-1.65,15.03-4.64,21.66Z"/>
    </g>
  </g>
</svg>